G04 #@! TF.GenerationSoftware,KiCad,Pcbnew,(5.1.6)-1*
G04 #@! TF.CreationDate,2020-09-19T18:08:12+01:00*
G04 #@! TF.ProjectId,ramlight,72616d6c-6967-4687-942e-6b696361645f,rev?*
G04 #@! TF.SameCoordinates,Original*
G04 #@! TF.FileFunction,Profile,NP*
%FSLAX46Y46*%
G04 Gerber Fmt 4.6, Leading zero omitted, Abs format (unit mm)*
G04 Created by KiCad (PCBNEW (5.1.6)-1) date 2020-09-19 18:08:12*
%MOMM*%
%LPD*%
G01*
G04 APERTURE LIST*
G04 #@! TA.AperFunction,Profile*
%ADD10C,0.050000*%
G04 #@! TD*
G04 APERTURE END LIST*
D10*
X90500000Y-110700000D02*
X122200000Y-110700000D01*
X90000000Y-110200000D02*
X90000000Y-103700000D01*
X90500000Y-110700000D02*
G75*
G02*
X90000000Y-110200000I0J500000D01*
G01*
X222800000Y-110700000D02*
X197100000Y-110700000D01*
X223300000Y-110200000D02*
X223300000Y-103700000D01*
X223300000Y-110200000D02*
G75*
G02*
X222800000Y-110700000I-500000J0D01*
G01*
X163500000Y-111200000D02*
X186900000Y-111200000D01*
X132400000Y-111200000D02*
X161000000Y-111200000D01*
X197100000Y-110700000D02*
X186900000Y-111200000D01*
X132400000Y-111200000D02*
X122200000Y-110700000D01*
X90000000Y-92900000D02*
X90000000Y-93100000D01*
X222800000Y-92400000D02*
X90500000Y-92400000D01*
X223300000Y-92900000D02*
X223300000Y-93100000D01*
X222800000Y-92400000D02*
G75*
G02*
X223300000Y-92900000I0J-500000D01*
G01*
X90000000Y-92900000D02*
G75*
G02*
X90500000Y-92400000I500000J0D01*
G01*
X91600000Y-93600000D02*
X90500000Y-93600000D01*
X92100000Y-96100000D02*
X92100000Y-94100000D01*
X90500000Y-96600000D02*
X91600000Y-96600000D01*
X90000000Y-99700000D02*
X90000000Y-97100000D01*
X91600000Y-103200000D02*
X90500000Y-103200000D01*
X92100000Y-100700000D02*
X92100000Y-102700000D01*
X90500000Y-100200000D02*
X91600000Y-100200000D01*
X90000000Y-103700000D02*
G75*
G02*
X90500000Y-103200000I500000J0D01*
G01*
X92100000Y-102700000D02*
G75*
G02*
X91600000Y-103200000I-500000J0D01*
G01*
X91600000Y-100200000D02*
G75*
G02*
X92100000Y-100700000I0J-500000D01*
G01*
X90500000Y-100200000D02*
G75*
G02*
X90000000Y-99700000I0J500000D01*
G01*
X90000000Y-97100000D02*
G75*
G02*
X90500000Y-96600000I500000J0D01*
G01*
X92100000Y-96100000D02*
G75*
G02*
X91600000Y-96600000I-500000J0D01*
G01*
X91600000Y-93600000D02*
G75*
G02*
X92100000Y-94100000I0J-500000D01*
G01*
X90500000Y-93600000D02*
G75*
G02*
X90000000Y-93100000I0J500000D01*
G01*
X163000000Y-108050000D02*
X163000000Y-110700000D01*
X161500000Y-110700000D02*
X161500000Y-108050000D01*
X163500000Y-111200000D02*
G75*
G02*
X163000000Y-110700000I0J500000D01*
G01*
X161500000Y-110700000D02*
G75*
G02*
X161000000Y-111200000I-500000J0D01*
G01*
X161500000Y-108050000D02*
G75*
G02*
X163000000Y-108050000I750000J0D01*
G01*
X221700000Y-103200000D02*
X222800000Y-103200000D01*
X222800000Y-103200000D02*
G75*
G02*
X223300000Y-103700000I0J-500000D01*
G01*
X221700000Y-100200000D02*
X222800000Y-100200000D01*
X223300000Y-97100000D02*
X223300000Y-99700000D01*
X223300000Y-99700000D02*
G75*
G02*
X222800000Y-100200000I-500000J0D01*
G01*
X221700000Y-96600000D02*
X222800000Y-96600000D01*
X222800000Y-93600000D02*
X221700000Y-93600000D01*
X222800000Y-96600000D02*
G75*
G02*
X223300000Y-97100000I0J-500000D01*
G01*
X223300000Y-93100000D02*
G75*
G02*
X222800000Y-93600000I-500000J0D01*
G01*
X221200000Y-94100000D02*
X221200000Y-96100000D01*
X221200000Y-100700000D02*
X221200000Y-102700000D01*
X221700000Y-103200000D02*
G75*
G02*
X221200000Y-102700000I0J500000D01*
G01*
X221200000Y-100700000D02*
G75*
G02*
X221700000Y-100200000I500000J0D01*
G01*
X221700000Y-96600000D02*
G75*
G02*
X221200000Y-96100000I0J500000D01*
G01*
X221200000Y-94100000D02*
G75*
G02*
X221700000Y-93600000I500000J0D01*
G01*
M02*
