G04 #@! TF.GenerationSoftware,KiCad,Pcbnew,(5.1.6)-1*
G04 #@! TF.CreationDate,2020-09-19T18:08:12+01:00*
G04 #@! TF.ProjectId,ramlight,72616d6c-6967-4687-942e-6b696361645f,rev?*
G04 #@! TF.SameCoordinates,Original*
G04 #@! TF.FileFunction,Copper,L1,Top*
G04 #@! TF.FilePolarity,Positive*
%FSLAX46Y46*%
G04 Gerber Fmt 4.6, Leading zero omitted, Abs format (unit mm)*
G04 Created by KiCad (PCBNEW (5.1.6)-1) date 2020-09-19 18:08:12*
%MOMM*%
%LPD*%
G01*
G04 APERTURE LIST*
G04 #@! TA.AperFunction,SMDPad,CuDef*
%ADD10R,1.400000X0.900000*%
G04 #@! TD*
G04 #@! TA.AperFunction,ComponentPad*
%ADD11R,2.600000X2.000000*%
G04 #@! TD*
G04 #@! TA.AperFunction,ComponentPad*
%ADD12O,2.600000X2.000000*%
G04 #@! TD*
G04 #@! TA.AperFunction,SMDPad,CuDef*
%ADD13R,2.000000X1.700000*%
G04 #@! TD*
G04 #@! TA.AperFunction,ViaPad*
%ADD14C,0.800000*%
G04 #@! TD*
G04 #@! TA.AperFunction,Conductor*
%ADD15C,1.000000*%
G04 #@! TD*
G04 #@! TA.AperFunction,Conductor*
%ADD16C,2.000000*%
G04 #@! TD*
G04 APERTURE END LIST*
D10*
X208500000Y-93400000D03*
X210900000Y-93400000D03*
X195200000Y-93400000D03*
X197600000Y-93400000D03*
X181900000Y-93400000D03*
X184300000Y-93400000D03*
X168600000Y-93400000D03*
X171000000Y-93400000D03*
X155300000Y-93400000D03*
X157700000Y-93400000D03*
X142000000Y-93400000D03*
X144400000Y-93400000D03*
X128700000Y-93400000D03*
X131100000Y-93400000D03*
X115400000Y-93400000D03*
X117800000Y-93400000D03*
X102100000Y-93400000D03*
X104500000Y-93400000D03*
D11*
X216000000Y-97000000D03*
D12*
X216000000Y-99540000D03*
X216000000Y-102080000D03*
X216000000Y-104620000D03*
D11*
X97000000Y-97000000D03*
D12*
X97000000Y-99540000D03*
X97000000Y-102080000D03*
X97000000Y-104620000D03*
D13*
X128000000Y-96000000D03*
X132000000Y-96000000D03*
X167900000Y-96000000D03*
X171900000Y-96000000D03*
X207200000Y-96000000D03*
X211200000Y-96000000D03*
D14*
X137000000Y-95000000D03*
X178000000Y-95000000D03*
X135000000Y-96000000D03*
X176000000Y-96000000D03*
D15*
X115400000Y-93400000D02*
X104500000Y-93400000D01*
D16*
X97000000Y-97000000D02*
X98900000Y-97000000D01*
X214200000Y-97000000D02*
X216000000Y-97000000D01*
X211700000Y-99500000D02*
X214200000Y-97000000D01*
D15*
X102100000Y-96600000D02*
X100300000Y-98400000D01*
X102100000Y-93400000D02*
X102100000Y-96600000D01*
D16*
X98900000Y-97000000D02*
X100300000Y-98400000D01*
X100300000Y-98400000D02*
X101400000Y-99500000D01*
D15*
X142000000Y-99300000D02*
X142200000Y-99500000D01*
X142000000Y-93400000D02*
X142000000Y-99300000D01*
D16*
X101400000Y-99500000D02*
X142200000Y-99500000D01*
D15*
X181900000Y-93400000D02*
X181900000Y-99100000D01*
X181900000Y-99100000D02*
X182300000Y-99500000D01*
D16*
X142200000Y-99500000D02*
X182300000Y-99500000D01*
X182300000Y-99500000D02*
X211700000Y-99500000D01*
D15*
X137000000Y-95000000D02*
X138600000Y-93400000D01*
X138600000Y-93400000D02*
X142000000Y-93400000D01*
X178000000Y-95000000D02*
X179500000Y-93500000D01*
X179600000Y-93400000D02*
X179500000Y-93500000D01*
X181900000Y-93400000D02*
X179600000Y-93400000D01*
X117800000Y-93400000D02*
X128700000Y-93400000D01*
X128500000Y-96000000D02*
X128000000Y-96000000D01*
X131100000Y-93400000D02*
X128500000Y-96000000D01*
X144400000Y-93400000D02*
X155300000Y-93400000D01*
X157700000Y-93400000D02*
X168600000Y-93400000D01*
X168400000Y-96000000D02*
X167900000Y-96000000D01*
X171000000Y-93400000D02*
X168400000Y-96000000D01*
X184300000Y-93400000D02*
X195200000Y-93400000D01*
X197600000Y-93400000D02*
X208500000Y-93400000D01*
X208300000Y-96000000D02*
X210900000Y-93400000D01*
X207200000Y-96000000D02*
X208300000Y-96000000D01*
D16*
X215128717Y-99540000D02*
X215100000Y-99568717D01*
X216000000Y-99540000D02*
X215128717Y-99540000D01*
X215100000Y-99568717D02*
X214831283Y-99568717D01*
X214831283Y-99568717D02*
X212600000Y-101800000D01*
X97871283Y-99540000D02*
X97000000Y-99540000D01*
X212600000Y-101800000D02*
X100131283Y-101800000D01*
X100131283Y-101800000D02*
X97871283Y-99540000D01*
D15*
X211200000Y-96000000D02*
X212100000Y-96000000D01*
X212100000Y-96000000D02*
X213400000Y-94700000D01*
X213400000Y-94700000D02*
X217800000Y-94700000D01*
X217800000Y-94700000D02*
X218600000Y-95500000D01*
X218600000Y-95500000D02*
X218600000Y-98400000D01*
X217460000Y-99540000D02*
X216000000Y-99540000D01*
X218600000Y-98400000D02*
X217460000Y-99540000D01*
X132000000Y-96000000D02*
X135000000Y-96000000D01*
X171900000Y-96000000D02*
X176000000Y-96000000D01*
M02*
